<svg version="1.1" id="Layer_1" xmlns="http://www.w3.org/2000/svg" xmlns:xlink="http://www.w3.org/1999/xlink" x="0px" y="0px"
     width="100%" viewBox="0 0 1284 425" enable-background="new 0 0 1284 425" xml:space="preserve">
<path fill="#000000" opacity="1.000000" stroke="none" 
    d="
M971.000000,0.999989 
    C1016.020935,1.000000 1061.041870,1.000000 1106.825195,1.319077 
    C1106.909180,2.729528 1105.874634,3.740674 1105.607910,4.924770 
    C1103.053345,16.266041 1100.628540,27.636532 1098.084473,39.401794 
    C1096.296753,47.522392 1094.591064,55.239841 1092.563232,63.098408 
    C1092.216187,64.159668 1092.191406,65.079811 1092.085205,66.398567 
    C1090.391479,74.531273 1088.779175,82.265366 1086.989502,90.365829 
    C1084.541992,101.040131 1082.292114,111.352615 1079.996094,121.654854 
    C1077.072510,134.773102 1074.111572,147.883041 1071.087891,161.414276 
    C1070.672607,163.569138 1070.359741,165.311234 1069.995605,167.042572 
    C1066.847412,182.012497 1063.679565,196.978287 1060.539307,211.949844 
    C1058.656372,220.926865 1056.811890,229.911987 1054.585083,239.083588 
    C1050.973022,254.860260 1047.724487,270.446503 1044.479370,286.033447 
    C1042.610840,295.008667 1040.747925,303.985046 1038.526123,313.150452 
    C1036.501709,321.559570 1034.833740,329.779205 1033.088623,338.405396 
    C1031.063232,347.874237 1029.114990,356.936554 1027.084229,366.401550 
    C1026.726074,367.372498 1026.318726,367.913422 1026.194214,368.513092 
    C1023.781250,380.129089 1021.126831,391.704681 1019.113953,403.390533 
    C1017.830505,410.840942 1014.684937,418.455017 1019.000000,426.000000 
    C973.312439,426.000000 927.624878,426.000000 881.178528,425.699341 
    C884.266418,421.959381 885.197876,417.602051 885.066833,412.590332 
    C884.823669,403.292694 885.011414,393.984100 884.997070,384.680115 
    C884.947815,352.785156 884.888733,320.890228 884.907593,288.550598 
    C884.981689,286.503571 884.981689,284.901245 884.981689,282.994690 
    C908.368042,282.994690 931.308716,283.135468 954.245667,282.903015 
    C960.560669,282.838989 967.066406,282.432739 973.134399,280.845032 
    C989.538391,276.552887 1003.193115,268.086243 1013.143494,253.745529 
    C1021.257019,242.052032 1024.044556,228.642929 1024.647949,215.348755 
    C1025.800781,189.946899 1024.888428,164.451294 1024.907715,138.531555 
    C1024.986816,124.429436 1025.188110,110.786842 1024.942871,97.152275 
    C1024.679565,82.513062 1026.439941,67.771210 1023.001160,53.268669 
    C1019.888794,40.142735 1014.317383,28.142941 1004.289856,19.033705 
    C995.172607,10.751395 984.615417,4.539680 971.967529,2.882983 
    C971.569641,2.830860 971.319214,1.653018 971.000000,0.999989 
z"/>
<path fill="#F5F5F5" opacity="1.000000" stroke="none" 
    d="
M1.000000,314.000000 
    C1.000000,263.979095 1.000000,213.958206 1.468657,163.468658 
    C41.430145,163.000000 80.923004,163.015228 120.415733,162.952820 
    C122.292900,162.949860 124.168991,162.259109 126.391983,162.052979 
    C126.823357,162.536224 126.883209,162.864426 126.996849,163.172821 
    C135.401382,185.980576 143.797668,208.791443 152.280136,231.570190 
    C152.530258,232.241821 153.691650,232.574112 155.166534,233.556366 
    C155.166534,209.491486 155.166534,186.243332 155.624756,162.996796 
    C179.999802,162.997375 203.916641,162.996353 227.913330,163.458237 
    C227.995804,187.688461 228.021271,211.455795 227.994888,235.223083 
    C227.966095,261.147125 227.889252,287.071106 227.375320,312.996674 
    C190.906952,313.013367 154.896622,313.028503 118.548141,312.875916 
    C116.841820,308.949036 115.451073,305.197937 114.109024,301.429474 
    C102.011734,267.460571 89.940529,233.482361 77.797707,199.529755 
    C76.847466,196.872803 75.414597,194.388428 74.206024,191.823853 
    C73.805046,191.957977 73.404060,192.092102 73.003082,192.226227 
    C73.003082,194.001663 73.005325,195.777100 73.002754,197.552536 
    C72.946526,236.366669 72.889778,275.180786 72.375000,313.996582 
    C48.277924,313.998810 24.638962,313.999420 1.000000,314.000000 
z"/>
<path fill="#000000" opacity="1.000000" stroke="none" 
    d="
M551.000000,426.000000 
    C511.312439,426.000000 471.624878,426.000000 431.166687,425.636230 
    C433.802887,424.513336 437.197876,423.695862 440.618561,423.005463 
    C453.202423,420.465668 464.580627,415.226471 473.908905,406.454651 
    C488.265320,392.954590 492.578247,374.736237 493.683441,356.301239 
    C494.984039,334.607666 493.889343,312.770508 493.907623,290.532410 
    C493.987213,277.583801 493.398712,265.062469 494.150299,252.622116 
    C495.059631,237.570953 481.624023,216.105972 465.472961,214.746826 
    C464.237762,214.642883 463.072418,213.709229 462.424927,213.413010 
    C467.725891,210.593384 473.496277,208.420837 478.183899,204.833450 
    C486.492462,198.474930 492.955444,190.019394 493.761108,179.417618 
    C494.728912,166.681625 493.889923,153.808334 493.907715,140.531433 
    C493.987823,118.277122 494.477783,96.470299 493.778809,74.701653 
    C493.465759,64.951775 491.265625,55.162392 489.029022,45.599762 
    C486.248993,33.713718 478.770508,24.740698 469.558563,16.906866 
    C461.010681,9.637807 451.978851,3.852582 440.467010,2.903211 
    C439.929352,2.858871 439.486816,1.660770 439.000000,1.000002 
    C475.354218,1.000000 511.708466,1.000000 548.825562,1.338175 
    C548.723206,4.018656 547.117676,6.356914 547.104858,8.703894 
    C546.938293,39.165058 546.977905,69.627487 547.007141,100.089546 
    C547.028503,122.391190 547.111267,144.692780 547.086548,167.457367 
    C547.003601,190.523682 546.977539,213.127060 547.003662,235.730362 
    C547.034180,262.152374 547.110229,288.574310 547.087402,315.459259 
    C547.005981,347.465851 546.983948,379.009521 547.020325,410.553070 
    C547.026550,415.955139 545.480591,421.874969 551.337158,425.633423 
    C551.224792,425.755615 551.112366,425.877808 551.000000,426.000000 
z"/>
<path fill="#FDFDFD" opacity="1.000000" stroke="none" 
    d="
M438.531342,1.000002 
    C439.486816,1.660770 439.929352,2.858871 440.467010,2.903211 
    C451.978851,3.852582 461.010681,9.637807 469.558563,16.906866 
    C478.770508,24.740698 486.248993,33.713718 489.029022,45.599762 
    C491.265625,55.162392 493.465759,64.951775 493.778809,74.701653 
    C494.477783,96.470299 493.987823,118.277122 493.449677,140.533173 
    C469.333679,140.996994 445.750214,140.996048 422.092285,140.532013 
    C422.012512,123.422829 421.990234,106.776726 422.008331,90.130669 
    C422.019531,79.786896 413.567596,71.754745 403.992432,71.882446 
    C378.361969,72.224274 352.723938,71.998955 327.088928,71.998955 
    C325.528137,71.998955 323.967377,71.998955 321.430786,71.998955 
    C322.697388,73.146507 323.095398,73.630814 323.599335,73.945274 
    C332.734894,79.645866 341.949585,85.224457 350.962067,91.112701 
    C352.426544,92.069489 353.846191,94.368889 353.865601,96.064003 
    C354.037262,111.038918 353.887787,126.017517 353.375000,140.996674 
    C328.666809,140.997025 304.416779,140.995743 280.092285,140.531403 
    C280.011047,106.337486 279.804382,72.604851 280.100922,38.876637 
    C280.211945,26.250072 278.139496,13.456441 282.000000,1.000000 
    C334.020905,1.000000 386.041779,1.000000 438.531342,1.000002 
z"/>
<path fill="#FDFDFD" opacity="1.000000" stroke="none" 
    d="
M970.531372,0.999989 
    C971.319214,1.653018 971.569641,2.830860 971.967529,2.882983 
    C984.615417,4.539680 995.172607,10.751395 1004.289856,19.033705 
    C1014.317383,28.142941 1019.888794,40.142735 1023.001160,53.268669 
    C1026.439941,67.771210 1024.679565,82.513062 1024.942871,97.152275 
    C1025.188110,110.786842 1024.986816,124.429436 1024.449707,138.533234 
    C1000.000366,138.997055 976.083557,138.996124 952.092285,138.532104 
    C952.012878,122.249207 952.085388,106.428886 951.975403,90.609840 
    C951.903931,80.340919 943.863770,71.755119 933.273926,71.890587 
    C907.466919,72.220734 881.652771,71.994690 855.841492,72.009628 
    C854.691589,72.010292 853.541809,72.178406 852.435669,72.265099 
    C862.996521,79.248619 873.333862,86.034286 883.579102,92.956322 
    C884.380798,93.497993 884.933838,94.991325 884.936340,96.043976 
    C884.970764,110.360855 884.887451,124.678024 884.375000,138.996719 
    C860.000122,138.997070 836.083496,138.995804 812.092285,138.531494 
    C812.010986,97.474754 811.933960,56.880795 812.086182,16.287693 
    C812.105286,11.189476 813.332520,6.095788 814.000000,1.000001 
    C866.020874,1.000000 918.041809,1.000000 970.531372,0.999989 
z"/>
<path fill="#F0F0F0" opacity="1.000000" stroke="none" 
    d="
M493.833313,290.995605 
    C493.889343,312.770508 494.984039,334.607666 493.683441,356.301239 
    C492.578247,374.736237 488.265320,392.954590 473.908905,406.454651 
    C464.580627,415.226471 453.202423,420.465668 440.618561,423.005463 
    C437.197876,423.695862 433.802887,424.513336 430.698059,425.636230 
    C382.645782,426.000000 334.291534,426.000000 285.756500,425.712524 
    C280.090973,421.456696 279.537598,415.890930 279.907410,409.665100 
    C280.320618,402.707977 279.991821,395.707306 280.002838,388.725647 
    C280.054260,356.148956 280.111511,323.572235 280.624817,290.997009 
    C305.333069,290.997467 329.583191,290.996399 353.912933,291.458344 
    C353.992554,312.506470 353.992554,333.091614 353.992554,353.998260 
    C370.425385,353.998260 386.370514,353.998260 402.315613,353.998260 
    C414.773438,353.998260 421.968292,346.643646 422.000824,333.929688 
    C422.037445,319.618225 422.109863,305.306854 422.624878,290.996979 
    C446.666504,290.997559 470.249908,290.996582 493.833313,290.995605 
z"/>
<path fill="#000000" opacity="1.000000" stroke="none" 
    d="
M813.531372,1.000001 
    C813.332520,6.095788 812.105286,11.189476 812.086182,16.287693 
    C811.933960,56.880795 812.010986,97.474754 812.012329,138.994492 
    C812.004456,163.355530 811.979126,186.790573 812.005371,210.225540 
    C812.034729,236.482117 812.110840,262.738678 812.086914,289.458191 
    C812.005737,330.249207 812.023132,370.577332 811.980713,410.905334 
    C811.974854,416.452454 810.880188,422.301758 817.489136,425.259369 
    C817.326111,425.506256 817.163025,425.753113 817.000000,426.000000 
    C796.645752,426.000000 776.291565,426.000000 755.179565,425.702515 
    C755.946655,423.007019 758.782654,420.617950 758.799072,418.209625 
    C759.033875,383.806702 758.887817,349.401184 758.908203,314.533142 
    C758.989441,286.147919 759.019043,258.225861 758.994873,230.303848 
    C758.976624,209.200668 758.889709,188.097549 758.907593,166.531342 
    C758.989807,116.142883 759.055664,66.217339 758.917847,16.292364 
    C758.903748,11.193187 757.668518,6.097378 757.000000,1.000003 
    C775.687561,1.000000 794.375122,1.000000 813.531372,1.000001 
z"/>
<path fill="#000000" opacity="1.000000" stroke="none" 
    d="
M280.166687,290.995544 
    C280.111511,323.572235 280.054260,356.148956 280.002838,388.725647 
    C279.991821,395.707306 280.320618,402.707977 279.907410,409.665100 
    C279.537598,415.890930 280.090973,421.456696 285.287842,425.712524 
    C264.979095,426.000000 244.958206,426.000000 224.178345,425.699280 
    C224.944809,422.416412 227.773987,419.444000 227.796402,416.450592 
    C228.054733,381.967285 227.887451,347.480774 227.833359,312.995117 
    C227.889252,287.071106 227.966095,261.147125 227.994888,235.223083 
    C228.021271,211.455795 227.995804,187.688461 227.987732,162.995087 
    C227.989548,115.198715 228.020111,68.328362 227.978867,21.458080 
    C227.972748,14.519166 229.292206,7.336115 225.000000,1.000000 
    C243.687561,1.000000 262.375122,1.000000 281.531342,1.000000 
    C278.139496,13.456441 280.211945,26.250072 280.100922,38.876637 
    C279.804382,72.604851 280.011047,106.337486 280.012299,140.994415 
    C280.004211,165.687943 279.978699,189.455444 280.005096,213.222900 
    C280.033875,239.147141 280.110779,265.071320 280.166687,290.995544 
z"/>
<path fill="#000000" opacity="1.000000" stroke="none" 
    d="
M1194.000000,1.000000 
    C1224.306763,1.000000 1254.613403,1.000000 1285.000000,1.000000 
    C1285.000000,136.687546 1285.000000,272.375122 1284.647583,408.830444 
    C1283.529907,406.873993 1282.658447,404.174438 1282.017578,401.421234 
    C1279.345581,389.942413 1276.743042,378.447449 1274.061157,366.536560 
    C1273.671387,364.049438 1273.444702,361.959198 1272.979736,359.923462 
    C1271.308105,352.605652 1269.555664,345.306213 1267.910156,337.588074 
    C1266.268799,329.116974 1264.551025,321.057648 1262.814697,312.640686 
    C1259.864136,298.981750 1256.935791,285.679718 1253.999268,272.379486 
    C1251.615845,261.584381 1249.222412,250.791489 1246.904297,239.594543 
    C1245.565430,232.595245 1244.189575,225.991562 1242.739502,219.404251 
    C1238.453125,199.931564 1234.137573,180.465302 1229.904297,160.593414 
    C1229.704956,159.619400 1229.314575,159.075012 1229.182007,158.473770 
    C1226.450317,146.074860 1223.671753,133.685501 1221.062988,121.260521 
    C1218.879883,110.862640 1216.902100,100.421654 1214.786133,89.608414 
    C1212.841064,81.107582 1210.943237,72.998093 1209.023926,64.571037 
    C1208.946167,63.835506 1208.889893,63.417542 1208.910767,62.587521 
    C1207.269775,54.449848 1205.551636,46.724232 1203.910278,38.591782 
    C1200.213867,25.909233 1200.116333,12.646372 1194.000000,1.000000 
z"/>
<path fill="#FCFCFC" opacity="1.000000" stroke="none" 
    d="
M126.045578,161.888672 
    C124.168991,162.259109 122.292900,162.949860 120.415733,162.952820 
    C80.923004,163.015228 41.430145,163.000000 1.468657,163.000000 
    C1.000000,109.103333 1.000000,55.206669 1.000000,1.000000 
    C23.019924,1.000000 45.041306,1.000000 67.243942,1.292858 
    C69.286194,4.587402 71.678009,7.386719 72.913284,10.626946 
    C77.471397,22.583332 81.694176,34.668880 85.956917,46.736286 
    C96.299782,76.015892 106.626625,105.301254 116.889046,134.609116 
    C120.058693,143.661163 122.999817,152.793243 126.045578,161.888672 
z"/>
<path fill="#000000" opacity="1.000000" stroke="none" 
    d="
M691.000000,426.000000 
    C665.979126,426.000000 640.958191,426.000000 615.179321,425.702026 
    C615.946411,422.635986 618.777405,419.877563 618.797913,417.098389 
    C619.048889,383.066162 618.887817,349.030853 618.908203,314.533203 
    C618.982971,292.170654 618.982971,270.271271 618.982971,248.342850 
    C641.915100,248.342850 664.400513,248.342850 687.166504,248.342850 
    C687.166504,270.788788 687.166504,292.892517 687.087402,315.459259 
    C687.005981,347.474823 687.003479,379.027435 687.001526,410.580017 
    C687.001221,415.931580 685.870605,421.629181 691.487244,425.265350 
    C691.324829,425.510223 691.162415,425.755127 691.000000,426.000000 
z"/>
<path fill="#000000" opacity="1.000000" stroke="none" 
    d="
M617.000000,1.000002 
    C640.687561,1.000000 664.375122,1.000000 688.825928,1.334704 
    C688.723755,4.382062 687.121765,7.090355 687.105713,9.808026 
    C686.928467,39.749615 686.977783,69.692688 687.007080,99.635307 
    C687.029053,122.088364 687.111267,144.541367 687.086548,167.451843 
    C687.006531,171.171951 687.006531,174.434586 687.006531,177.689453 
    C664.063293,177.689453 641.614685,177.689453 618.833374,177.689453 
    C618.833374,173.922501 618.833374,170.458450 618.907593,166.531342 
    C618.989685,116.842949 619.063782,67.617439 618.916748,18.392590 
    C618.899414,12.593204 617.668396,6.797445 617.000000,1.000002 
z"/>
<path fill="#FBFBFB" opacity="1.000000" stroke="none" 
    d="
M687.166626,166.994385 
    C687.111267,144.541367 687.029053,122.088364 687.007080,99.635307 
    C686.977783,69.692688 686.928467,39.749615 687.105713,9.808026 
    C687.121765,7.090355 688.723755,4.382062 689.294617,1.334704 
    C711.354248,1.000000 733.708435,1.000000 756.531311,1.000003 
    C757.668518,6.097378 758.903748,11.193187 758.917847,16.292364 
    C759.055664,66.217339 758.989807,116.142883 758.449585,166.533096 
    C734.333679,166.996750 710.750183,166.995575 687.166626,166.994385 
z"/>
<path fill="#FBFBFB" opacity="1.000000" stroke="none" 
    d="
M616.531311,1.000002 
    C617.668396,6.797445 618.899414,12.593204 618.916748,18.392590 
    C619.063782,67.617439 618.989685,116.842949 618.449585,166.533096 
    C594.333679,166.996750 570.750183,166.995575 547.166626,166.994385 
    C547.111267,144.692780 547.028503,122.391190 547.007141,100.089546 
    C546.977905,69.627487 546.938293,39.165058 547.104858,8.703894 
    C547.117676,6.356914 548.723206,4.018656 549.294189,1.338175 
    C571.354248,1.000000 593.708435,1.000000 616.531311,1.000002 
z"/>
<path fill="#FCFCFC" opacity="1.000000" stroke="none" 
    d="
M224.531342,1.000000 
    C229.292206,7.336115 227.972748,14.519166 227.978867,21.458080 
    C228.020111,68.328362 227.989548,115.198715 227.907867,162.532196 
    C203.916641,162.996353 179.999802,162.997375 155.550354,162.533661 
    C155.010437,114.176392 154.935120,66.283669 155.084320,18.391645 
    C155.102386,12.592497 156.331940,6.797122 157.000000,1.000000 
    C179.354233,1.000000 201.708450,1.000000 224.531342,1.000000 
z"/>
<path fill="#000000" opacity="1.000000" stroke="none" 
    d="
M72.833122,313.994934 
    C72.889778,275.180786 72.946526,236.366669 73.002754,197.552536 
    C73.005325,195.777100 73.003082,194.001663 73.003082,192.226227 
    C73.404060,192.092102 73.805046,191.957977 74.206024,191.823853 
    C75.414597,194.388428 76.847466,196.872803 77.797707,199.529755 
    C89.940529,233.482361 102.011734,267.460571 114.109024,301.429474 
    C115.451073,305.197937 116.841820,308.949036 118.598160,313.272156 
    C124.738892,330.103363 130.137787,346.506683 136.331589,362.604126 
    C144.473862,383.765594 149.261673,406.241394 161.000000,426.000000 
    C130.645767,426.000000 100.291542,426.000000 69.179337,425.702026 
    C69.946381,422.635834 72.777679,419.877075 72.797882,417.097931 
    C73.047630,382.731995 72.887558,348.363068 72.833122,313.994934 
z"/>
<path fill="#000000" opacity="1.000000" stroke="none" 
    d="
M156.531342,1.000000 
    C156.331940,6.797122 155.102386,12.592497 155.084320,18.391645 
    C154.935120,66.283669 155.010437,114.176392 155.092133,162.532043 
    C155.166534,186.243332 155.166534,209.491486 155.166534,233.556366 
    C153.691650,232.574112 152.530258,232.241821 152.280136,231.570190 
    C143.797668,208.791443 135.401382,185.980576 126.996849,163.172821 
    C126.883209,162.864426 126.823357,162.536224 126.391983,162.052979 
    C122.999817,152.793243 120.058693,143.661163 116.889046,134.609116 
    C106.626625,105.301254 96.299782,76.015892 85.956917,46.736286 
    C81.694176,34.668880 77.471397,22.583332 72.913284,10.626946 
    C71.678009,7.386719 69.286194,4.587402 67.712601,1.292858 
    C97.354225,1.000000 126.708458,1.000000 156.531342,1.000000 
z"/>
<path fill="#F0F0F0" opacity="1.000000" stroke="none" 
    d="
M161.468658,426.000000 
    C149.261673,406.241394 144.473862,383.765594 136.331589,362.604126 
    C130.137787,346.506683 124.738892,330.103363 118.936310,313.439880 
    C154.896622,313.028503 190.906952,313.013367 227.375320,312.996674 
    C227.887451,347.480774 228.054733,381.967285 227.796402,416.450592 
    C227.773987,419.444000 224.944809,422.416412 223.709686,425.699280 
    C203.312439,426.000000 182.624878,426.000000 161.468658,426.000000 
z"/>
<path fill="#F0F0F0" opacity="1.000000" stroke="none" 
    d="
M817.468628,426.000000 
    C817.163025,425.753113 817.326111,425.506256 817.489136,425.259369 
    C810.880188,422.301758 811.974854,416.452454 811.980713,410.905334 
    C812.023132,370.577332 812.005737,330.249207 812.544922,289.459717 
    C836.999573,288.997284 860.916504,288.996277 884.833435,288.995270 
    C884.888733,320.890228 884.947815,352.785156 884.997070,384.680115 
    C885.011414,393.984100 884.823669,403.292694 885.066833,412.590332 
    C885.197876,417.602051 884.266418,421.959381 880.709839,425.699341 
    C859.979126,426.000000 838.958191,426.000000 817.468628,426.000000 
z"/>
<path fill="#000000" opacity="1.000000" stroke="none" 
    d="
M1216.000000,426.000000 
    C1172.979126,426.000000 1129.958130,426.000000 1086.177856,425.694672 
    C1086.942017,422.075806 1089.184448,418.903290 1089.866821,415.424744 
    C1093.089600,398.995392 1095.885376,382.482269 1098.909790,365.587158 
    C1100.671509,356.821533 1102.357056,348.467804 1104.505859,340.061096 
    C1135.964233,340.042297 1166.959473,340.076538 1197.975830,340.525085 
    C1198.331299,342.812256 1198.650391,344.687988 1199.002930,346.557434 
    C1200.290161,353.386017 1201.588623,360.212524 1202.936035,367.471497 
    C1203.325806,370.471619 1203.377197,373.116852 1204.045166,375.596039 
    C1208.539062,392.278442 1207.798340,410.203400 1216.000000,426.000000 
z"/>
<path fill="#F0F0F0" opacity="1.000000" stroke="none" 
    d="
M72.375000,313.996582 
    C72.887558,348.363068 73.047630,382.731995 72.797882,417.097931 
    C72.777679,419.877075 69.946381,422.635834 68.710678,425.702026 
    C46.388554,426.000000 23.777109,426.000000 1.000000,426.000000 
    C1.000000,388.979279 1.000000,351.958282 1.000000,314.468658 
    C24.638962,313.999420 48.277924,313.998810 72.375000,313.996582 
z"/>
<path fill="#F0F0F0" opacity="1.000000" stroke="none" 
    d="
M618.833496,314.996368 
    C618.887817,349.030853 619.048889,383.066162 618.797913,417.098389 
    C618.777405,419.877563 615.946411,422.635986 614.710693,425.702026 
    C593.979126,426.000000 572.958191,426.000000 551.468628,426.000000 
    C551.112366,425.877808 551.224792,425.755615 551.337158,425.633423 
    C545.480591,421.874969 547.026550,415.955139 547.020325,410.553070 
    C546.983948,379.009521 547.005981,347.465851 547.545471,315.460480 
    C571.666260,314.997925 595.249878,314.997131 618.833496,314.996368 
z"/>
<path fill="#F0F0F0" opacity="1.000000" stroke="none" 
    d="
M691.468628,426.000000 
    C691.162415,425.755127 691.324829,425.510223 691.487244,425.265350 
    C685.870605,421.629181 687.001221,415.931580 687.001526,410.580017 
    C687.003479,379.027435 687.005981,347.474823 687.545471,315.460480 
    C711.666260,314.997894 735.249878,314.997101 758.833496,314.996277 
    C758.887817,349.401184 759.033875,383.806702 758.799072,418.209625 
    C758.782654,420.617950 755.946655,423.007019 754.710876,425.702515 
    C733.979126,426.000000 712.958191,426.000000 691.468628,426.000000 
z"/>
<path fill="#EFEFEF" opacity="1.000000" stroke="none" 
    d="
M1098.833496,365.999023 
    C1095.885376,382.482269 1093.089600,398.995392 1089.866821,415.424744 
    C1089.184448,418.903290 1086.942017,422.075806 1085.709229,425.694672 
    C1063.979126,426.000000 1041.958130,426.000000 1019.468628,426.000000 
    C1014.684937,418.455017 1017.830505,410.840942 1019.113953,403.390533 
    C1021.126831,391.704681 1023.781250,380.129089 1026.194214,368.513092 
    C1026.318726,367.913422 1026.726074,367.372498 1027.542236,366.402039 
    C1051.666382,365.999573 1075.249878,365.999298 1098.833496,365.999023 
z"/>
<path fill="#EFEFEF" opacity="1.000000" stroke="none" 
    d="
M1216.468628,426.000000 
    C1207.798340,410.203400 1208.539062,392.278442 1204.045166,375.596039 
    C1203.377197,373.116852 1203.325806,370.471619 1203.412109,367.459778 
    C1227.261597,366.997009 1250.688354,366.977722 1274.114990,366.958435 
    C1276.743042,378.447449 1279.345581,389.942413 1282.017578,401.421234 
    C1282.658447,404.174438 1283.529907,406.873993 1284.647583,409.299133 
    C1285.000000,414.637695 1285.000000,420.275360 1285.000000,426.000000 
    C1262.312500,426.000000 1239.624878,426.000000 1216.468628,426.000000 
z"/>
<path fill="#FEFEFE" opacity="1.000000" stroke="none" 
    d="
M1193.531372,1.000000 
    C1200.116333,12.646372 1200.213867,25.909233 1203.452148,38.592224 
    C1168.000488,38.999210 1133.083374,38.998917 1098.166504,38.998634 
    C1100.628540,27.636532 1103.053345,16.266041 1105.607910,4.924770 
    C1105.874634,3.740674 1106.909180,2.729528 1107.293823,1.319077 
    C1135.687622,1.000000 1164.375122,1.000000 1193.531372,1.000000 
z"/>
<path fill="#F7F7F7" opacity="1.000000" stroke="none" 
    d="
M884.907593,288.550598 
    C860.916504,288.996277 836.999573,288.997284 812.624634,288.996765 
    C812.110840,262.738678 812.034729,236.482117 812.005371,210.225540 
    C811.979126,186.790573 812.004456,163.355530 812.086914,139.457535 
    C836.083496,138.995804 860.000122,138.997070 884.454895,139.459686 
    C884.992981,163.833237 884.992981,187.745438 884.992981,211.999100 
    C902.224426,211.999100 918.995239,212.006866 935.765991,211.974319 
    C936.538696,211.972824 937.329773,211.665085 938.080139,211.406723 
    C946.430054,208.531555 951.675964,202.056854 951.915588,190.905533 
    C952.287292,173.608276 952.110840,156.299240 952.166748,138.995209 
    C976.083557,138.996124 1000.000366,138.997055 1024.375244,138.996277 
    C1024.888428,164.451294 1025.800781,189.946899 1024.647949,215.348755 
    C1024.044556,228.642929 1021.257019,242.052032 1013.143494,253.745529 
    C1003.193115,268.086243 989.538391,276.552887 973.134399,280.845032 
    C967.066406,282.432739 960.560669,282.838989 954.245667,282.903015 
    C931.308716,283.135468 908.368042,282.994690 884.981689,282.994690 
    C884.981689,284.901245 884.981689,286.503571 884.907593,288.550598 
z"/>
<path fill="#F4F4F4" opacity="1.000000" stroke="none" 
    d="
M1246.833252,239.997620 
    C1249.222412,250.791489 1251.615845,261.584381 1253.999268,272.379486 
    C1256.935791,285.679718 1259.864136,298.981750 1262.356445,312.641235 
    C1187.572144,312.986633 1113.227417,312.973785 1038.882568,312.960938 
    C1040.747925,303.985046 1042.610840,295.008667 1044.479370,286.033447 
    C1047.724487,270.446503 1050.973022,254.860260 1054.869629,239.398163 
    C1057.320923,239.681717 1059.122437,239.976654 1060.924438,239.979294 
    C1082.227417,240.010483 1103.530518,239.997986 1124.782959,240.394485 
    C1122.395996,253.048615 1120.059448,265.305237 1117.699219,277.686279 
    C1139.896484,277.686279 1161.409180,277.686279 1183.189575,277.686279 
    C1182.933228,275.895782 1182.758789,274.443085 1182.513672,273.002411 
    C1180.643921,262.013245 1178.760376,251.026443 1177.356934,240.026932 
    C1200.833008,240.009186 1223.833130,240.003403 1246.833252,239.997620 
z"/>
<path fill="#FBFBFB" opacity="1.000000" stroke="none" 
    d="
M1214.833252,89.999756 
    C1216.902100,100.421654 1218.879883,110.862640 1221.062988,121.260521 
    C1223.671753,133.685501 1226.450317,146.074860 1229.182007,158.473770 
    C1229.314575,159.075012 1229.704956,159.619400 1229.446289,160.594482 
    C1206.666992,160.998123 1184.416870,160.997574 1162.086182,160.588943 
    C1160.337769,151.494766 1158.635376,142.815109 1157.010254,134.120972 
    C1154.862671,122.631706 1152.775757,111.131081 1150.662720,99.635338 
    C1149.964111,101.181564 1150.194092,102.702530 1149.927490,104.130814 
    C1148.006958,114.419197 1146.001099,124.691772 1143.991943,134.963409 
    C1142.293823,143.645432 1140.554565,152.319397 1138.375244,160.997955 
    C1115.666870,160.998169 1093.416748,160.997360 1071.166626,160.996552 
    C1074.111572,147.883041 1077.072510,134.773102 1079.996094,121.654854 
    C1082.292114,111.352615 1084.541992,101.040131 1087.447632,90.366013 
    C1130.333008,89.999802 1172.583130,89.999779 1214.833252,89.999756 
z"/>
<path fill="#F2F2F2" opacity="1.000000" stroke="none" 
    d="
M1038.526123,313.150452 
    C1113.227417,312.973785 1187.572144,312.986633 1262.375122,312.998901 
    C1264.551025,321.057648 1266.268799,329.116974 1267.506470,337.650452 
    C1264.919067,338.416382 1262.812500,338.954254 1260.704224,338.961517 
    C1241.652832,339.027191 1222.600830,338.969269 1203.549561,339.048492 
    C1201.683105,339.056274 1199.819458,339.740509 1197.954590,340.110779 
    C1166.959473,340.076538 1135.964233,340.042297 1104.412842,339.656982 
    C1102.047607,338.870544 1100.240112,338.063904 1098.429565,338.056549 
    C1076.675293,337.968689 1054.920532,337.999207 1033.165771,337.998840 
    C1034.833740,329.779205 1036.501709,321.559570 1038.526123,313.150452 
z"/>
<path fill="#F7F7F7" opacity="1.000000" stroke="none" 
    d="
M1071.087891,161.414276 
    C1093.416748,160.997360 1115.666870,160.998169 1138.453979,161.416306 
    C1138.661255,163.737122 1138.359497,165.645950 1137.997437,167.543259 
    C1135.699341,179.586243 1133.297974,191.610352 1131.105835,203.672501 
    C1128.908813,215.761337 1126.915894,227.887283 1124.833496,239.996979 
    C1103.530518,239.997986 1082.227417,240.010483 1060.924438,239.979294 
    C1059.122437,239.976654 1057.320923,239.681717 1055.234619,239.208008 
    C1056.811890,229.911987 1058.656372,220.926865 1060.539307,211.949844 
    C1063.679565,196.978287 1066.847412,182.012497 1069.995605,167.042572 
    C1070.359741,165.311234 1070.672607,163.569138 1071.087891,161.414276 
z"/>
<path fill="#FCFCFC" opacity="1.000000" stroke="none" 
    d="
M1214.786133,89.608421 
    C1172.583130,89.999779 1130.333008,89.999802 1087.624756,89.999634 
    C1088.779175,82.265366 1090.391479,74.531273 1092.543335,66.398590 
    C1129.863159,66.000008 1166.643433,66.016312 1203.423706,65.952728 
    C1205.298340,65.949486 1207.171631,65.259064 1209.045410,64.888596 
    C1210.943237,72.998093 1212.841064,81.107582 1214.786133,89.608421 
z"/>
<path fill="#FDFDFD" opacity="1.000000" stroke="none" 
    d="
M1098.084351,39.401787 
    C1133.083374,38.998917 1168.000488,38.999210 1203.375488,38.999058 
    C1205.551636,46.724232 1207.269775,54.449848 1208.507080,62.649963 
    C1205.906494,63.416302 1203.786987,63.959206 1201.666870,63.962502 
    C1167.508667,64.015579 1133.350464,64.018402 1099.192383,63.955357 
    C1097.089355,63.951477 1094.987671,63.304855 1092.885376,62.957287 
    C1094.591064,55.239841 1096.296753,47.522392 1098.084351,39.401787 
z"/>
<path fill="#F1F1F1" opacity="1.000000" stroke="none" 
    d="
M1033.088745,338.405396 
    C1054.920532,337.999207 1076.675293,337.968689 1098.429565,338.056549 
    C1100.240112,338.063904 1102.047607,338.870544 1103.949463,339.709961 
    C1102.357056,348.467804 1100.671509,356.821533 1098.909790,365.587158 
    C1075.249878,365.999298 1051.666382,365.999573 1027.624756,365.999329 
    C1029.114990,356.936554 1031.063232,347.874237 1033.088745,338.405396 
z"/>
<path fill="#FDFDFD" opacity="1.000000" stroke="none" 
    d="
M1092.563232,63.098404 
    C1094.987671,63.304855 1097.089355,63.951477 1099.192383,63.955357 
    C1133.350464,64.018402 1167.508667,64.015579 1201.666870,63.962502 
    C1203.786987,63.959206 1205.906494,63.416302 1208.429932,63.062012 
    C1208.889893,63.417542 1208.946167,63.835506 1209.023926,64.571030 
    C1207.171631,65.259064 1205.298340,65.949486 1203.423706,65.952728 
    C1166.643433,66.016312 1129.863159,66.000008 1092.624634,65.999985 
    C1092.191406,65.079811 1092.216187,64.159668 1092.563232,63.098404 
z"/>
<path fill="#F6F6F6" opacity="1.000000" stroke="none" 
    d="
M280.624817,290.997009 
    C280.110779,265.071320 280.033875,239.147141 280.005096,213.222900 
    C279.978699,189.455444 280.004211,165.687943 280.086792,141.457458 
    C304.416779,140.995743 328.666809,140.997025 353.454987,141.459625 
    C353.993164,153.511719 353.993164,165.102509 353.993164,176.996231 
    C370.432983,176.996231 386.404205,176.391800 402.304382,177.194595 
    C414.223083,177.796387 422.724274,167.386124 422.069000,157.450058 
    C421.709015,151.990952 422.109283,146.481735 422.166809,140.995102 
    C445.750214,140.996048 469.333679,140.996994 493.375183,140.996216 
    C493.889923,153.808334 494.728912,166.681625 493.761108,179.417618 
    C492.955444,190.019394 486.492462,198.474930 478.183899,204.833450 
    C473.496277,208.420837 467.725891,210.593384 462.424927,213.413010 
    C463.072418,213.709229 464.237762,214.642883 465.472961,214.746826 
    C481.624023,216.105972 495.059631,237.570953 494.150299,252.622116 
    C493.398712,265.062469 493.987213,277.583801 493.907623,290.532410 
    C470.249908,290.996582 446.666504,290.997559 422.550598,290.533813 
    C422.013428,282.247681 422.130157,274.423798 421.971344,266.605499 
    C421.798828,258.112274 414.797211,248.683624 404.366882,248.912567 
    C389.230499,249.244843 374.081421,248.997757 358.937744,248.997757 
    C357.348114,248.997757 355.758514,248.997742 353.833313,248.997742 
    C353.833313,263.410828 353.833313,277.203094 353.833313,290.995361 
    C329.583191,290.996399 305.333069,290.997467 280.624817,290.997009 
z"/>
<path fill="#F5F5F5" opacity="1.000000" stroke="none" 
    d="
M758.908203,314.533142 
    C735.249878,314.997101 711.666260,314.997894 687.624573,314.997498 
    C687.166504,292.892517 687.166504,270.788788 687.166504,248.342850 
    C664.400513,248.342850 641.915100,248.342850 618.982971,248.342850 
    C618.982971,270.271271 618.982971,292.170654 618.908203,314.533203 
    C595.249878,314.997131 571.666260,314.997925 547.624573,314.997498 
    C547.110229,288.574310 547.034180,262.152374 547.003662,235.730362 
    C546.977539,213.127060 547.003601,190.523682 547.086548,167.457367 
    C570.750183,166.995575 594.333679,166.996750 618.375305,166.996155 
    C618.833374,170.458450 618.833374,173.922501 618.833374,177.689453 
    C641.614685,177.689453 664.063293,177.689453 687.006531,177.689453 
    C687.006531,174.434586 687.006531,171.171951 687.086548,167.451843 
    C710.750183,166.995575 734.333679,166.996750 758.375305,166.996155 
    C758.889709,188.097549 758.976624,209.200668 758.994873,230.303848 
    C759.019043,258.225861 758.989441,286.147919 758.908203,314.533142 
z"/>
<path fill="#000000" opacity="1.000000" stroke="none" 
    d="
M422.092285,140.532013 
    C422.109283,146.481735 421.709015,151.990952 422.069000,157.450058 
    C422.724274,167.386124 414.223083,177.796387 402.304382,177.194595 
    C386.404205,176.391800 370.432983,176.996231 353.993164,176.996231 
    C353.993164,165.102509 353.993164,153.511719 353.913208,141.457977 
    C353.887787,126.017517 354.037262,111.038918 353.865601,96.064003 
    C353.846191,94.368889 352.426544,92.069489 350.962067,91.112701 
    C341.949585,85.224457 332.734894,79.645866 323.599335,73.945274 
    C323.095398,73.630814 322.697388,73.146507 321.430786,71.998955 
    C323.967377,71.998955 325.528137,71.998955 327.088928,71.998955 
    C352.723938,71.998955 378.361969,72.224274 403.992432,71.882446 
    C413.567596,71.754745 422.019531,79.786896 422.008331,90.130669 
    C421.990234,106.776726 422.012512,123.422829 422.092285,140.532013 
z"/>
<path fill="#000000" opacity="1.000000" stroke="none" 
    d="
M952.092285,138.532104 
    C952.110840,156.299240 952.287292,173.608276 951.915588,190.905533 
    C951.675964,202.056854 946.430054,208.531555 938.080139,211.406723 
    C937.329773,211.665085 936.538696,211.972824 935.765991,211.974319 
    C918.995239,212.006866 902.224426,211.999100 884.992981,211.999100 
    C884.992981,187.745438 884.992981,163.833237 884.913086,139.458084 
    C884.887451,124.678024 884.970764,110.360855 884.936340,96.043976 
    C884.933838,94.991325 884.380798,93.497993 883.579102,92.956322 
    C873.333862,86.034286 862.996521,79.248619 852.435669,72.265099 
    C853.541809,72.178406 854.691589,72.010292 855.841492,72.009628 
    C881.652771,71.994690 907.466919,72.220734 933.273926,71.890587 
    C943.863770,71.755119 951.903931,80.340919 951.975403,90.609840 
    C952.085388,106.428886 952.012878,122.249207 952.092285,138.532104 
z"/>
<path fill="#000000" opacity="1.000000" stroke="none" 
    d="
M353.912933,291.458344 
    C353.833313,277.203094 353.833313,263.410828 353.833313,248.997742 
    C355.758514,248.997742 357.348114,248.997757 358.937744,248.997757 
    C374.081421,248.997757 389.230499,249.244843 404.366882,248.912567 
    C414.797211,248.683624 421.798828,258.112274 421.971344,266.605499 
    C422.130157,274.423798 422.013428,282.247681 422.092377,290.532288 
    C422.109863,305.306854 422.037445,319.618225 422.000824,333.929688 
    C421.968292,346.643646 414.773438,353.998260 402.315613,353.998260 
    C386.370514,353.998260 370.425385,353.998260 353.992554,353.998260 
    C353.992554,333.091614 353.992554,312.506470 353.912933,291.458344 
z"/>
<path fill="#F7F7F7" opacity="1.000000" stroke="none" 
    d="
M1162.166626,160.997009 
    C1184.416870,160.997574 1206.666992,160.998123 1229.375244,160.997620 
    C1234.137573,180.465302 1238.453125,199.931564 1242.739502,219.404251 
    C1244.189575,225.991562 1245.565430,232.595245 1246.904175,239.594543 
    C1223.833130,240.003403 1200.833008,240.009186 1177.000000,239.833755 
    C1175.445679,235.679947 1174.711914,231.709579 1174.005493,227.734360 
    C1171.827515,215.478806 1169.661499,203.221130 1167.487915,190.964783 
    C1165.716309,180.975143 1163.940552,170.986237 1162.166626,160.997009 
z"/>
<path fill="#F1F1F1" opacity="1.000000" stroke="none" 
    d="
M1197.975830,340.525085 
    C1199.819458,339.740509 1201.683105,339.056274 1203.549561,339.048492 
    C1222.600830,338.969269 1241.652832,339.027191 1260.704224,338.961517 
    C1262.812500,338.954254 1264.919067,338.416382 1267.430176,338.062195 
    C1269.555664,345.306213 1271.308105,352.605652 1272.979736,359.923462 
    C1273.444702,361.959198 1273.671387,364.049438 1274.061157,366.536560 
    C1250.688354,366.977722 1227.261597,366.997009 1203.358887,367.028076 
    C1201.588623,360.212524 1200.290161,353.386017 1199.002930,346.557434 
    C1198.650391,344.687988 1198.331299,342.812256 1197.975830,340.525085 
z"/>
<path fill="#000000" opacity="1.000000" stroke="none" 
    d="
M1162.086182,160.588943 
    C1163.940552,170.986237 1165.716309,180.975143 1167.487915,190.964783 
    C1169.661499,203.221130 1171.827515,215.478806 1174.005493,227.734360 
    C1174.711914,231.709579 1175.445679,235.679947 1176.524048,239.845718 
    C1178.760376,251.026443 1180.643921,262.013245 1182.513672,273.002411 
    C1182.758789,274.443085 1182.933228,275.895782 1183.189575,277.686279 
    C1161.409180,277.686279 1139.896484,277.686279 1117.699219,277.686279 
    C1120.059448,265.305237 1122.395996,253.048615 1124.782959,240.394470 
    C1126.915894,227.887283 1128.908813,215.761337 1131.105835,203.672501 
    C1133.297974,191.610352 1135.699341,179.586243 1137.997437,167.543259 
    C1138.359497,165.645950 1138.661255,163.737122 1138.912109,161.415283 
    C1140.554565,152.319397 1142.293823,143.645432 1143.991943,134.963409 
    C1146.001099,124.691772 1148.006958,114.419197 1149.927490,104.130814 
    C1150.194092,102.702530 1149.964111,101.181564 1150.662720,99.635338 
    C1152.775757,111.131081 1154.862671,122.631706 1157.010254,134.120972 
    C1158.635376,142.815109 1160.337769,151.494766 1162.086182,160.588943 
z"/>
</svg>