<?xml version="1.0" encoding="UTF-8" standalone="no"?>
<!-- Created with Inkscape (http://www.inkscape.org/) -->

<svg
   version="1.1"
   id="svg48"
   width="322.66666"
   height="106.66667"
   viewBox="0 0 322.66666 106.66667"
   xmlns:xlink="http://www.w3.org/1999/xlink"
   xmlns="http://www.w3.org/2000/svg"
   xmlns:svg="http://www.w3.org/2000/svg">
  <defs
     id="defs52">
    <linearGradient
       id="linearGradient8177">
      <stop
         style="stop-color:#0058a5;stop-opacity:1;"
         offset="0"
         id="stop8173" />
      <stop
         style="stop-color:#003172;stop-opacity:1;"
         offset="1"
         id="stop8175" />
    </linearGradient>
    <linearGradient
       xlink:href="#linearGradient8177"
       id="linearGradient8179"
       x1="146.83408"
       y1="-107.67262"
       x2="147.5321"
       y2="-7.9680209"
       gradientUnits="userSpaceOnUse"
       gradientTransform="translate(1.2820649,110.84277)" />
  </defs>
  <g
     id="g54">
    <path
       style="opacity:1;fill:url(#linearGradient8179);fill-opacity:1;stroke-width:0.333333"
       d="m 0.94081486,105.80025 c -0.50835,-0.56172 -0.55166,-4.67805 -0.55166,-52.42585 0,-46.3582648 0.0547,-51.8942848 0.5189,-52.55708477 0.50949004,-0.7274 0.65195004,-0.74084 7.85525004,-0.74084 4.4116801,0 7.5929401,0.13733 7.9800101,0.34448 0.62906,0.33667 1.97917,2.60472997 1.97917,3.32483997 0,0.1994 0.96142,3.01788 2.13649,6.2632798 1.17508,3.245407 3.28646,9.200734 4.69196,13.234067 1.40551,4.033334 2.89754,8.233334 3.31562,9.333334 0.41808,1.1 1.56141,4.25 2.54072,7 4.28046,12.019911 6.89758,18.666667 7.34988,18.666667 0.39392,0 0.47841,-4.36985 0.55055,-28.475835 0.0776,-25.9156828 0.13464,-28.5304528 0.63499,-29.08333277 0.50182,-0.5545 1.22407,-0.6075 8.27979,-0.6075 7.04477,0 7.77856,0.0537 8.27767,0.60516 0.50294,0.55573997 0.54865,4.84294997 0.55982,52.50665777 0.008,35.934243 -0.0965,52.104567 -0.34105,52.561527 -0.33659,0.62892 -0.71766,0.65977 -8.0915,0.6549 -4.25605,-0.003 -7.90891,-0.1153 -8.11747,-0.25 -0.44321,-0.28623 -1.67225,-3.1336 -3.06543,-7.101844 -2.64821,-7.54293 -7.2887,-20.580124 -9.7207,-27.309731 -1.49072,-4.125 -3.05445,-8.475 -3.47496,-9.666667 -3.56218,-10.094888 -5.08003,-14.000001 -5.44157,-14.000001 -0.33203,0 -0.41814,5.854043 -0.41814,28.425831 0,25.188112 -0.0591,28.510232 -0.5189,29.166682 -0.51149,0.73026 -0.63216,0.74084 -8.4483401,0.74084 -7.25858,0 -7.97611,-0.0516 -8.48110004,-0.60958 z m 70.34894014,0.0172 c -0.52902,-0.58455 -0.56727,-4.12089 -0.56727,-52.44308 0,-46.3582648 0.0547,-51.8942848 0.5189,-52.55708477 l 0.5189,-0.74081 h 17.20853 c 10.68034,0 18.355155,0.14163 20.231095,0.37334 4.18343,0.51673 6.6186,1.71216997 9.67443,4.74923997 2.7414,2.72457 3.56567,4.28304 4.51177,8.5304768 0.61375,2.75534 0.6697,4.20478 0.6697,17.347048 0,13.77707 -0.0269,14.397796 -0.68553,15.798903 -1.35294,2.878264 -4.09318,5.368747 -6.43386,5.847467 -1.42885,0.292233 -1.15698,0.749567 0.83081,1.397583 2.32327,0.757377 3.95063,2.18339 5.12192,4.488194 l 1,1.96775 0.0932,14.717751 c 0.0861,13.590618 0.0432,14.947308 -0.56094,17.715158 -1.18002,5.40664 -3.54725,8.834664 -7.57254,10.965904 -4.34455,2.30027 -3.62032,2.23149 -24.809155,2.35616 -18.43109,0.10845 -19.20495,0.0883 -19.75,-0.51395 z M 103.72248,88.492626 c 0.75929,-0.379305 1.42855,-1.102152 1.91667,-2.070112 0.72659,-1.44088 0.75,-1.790443 0.75,-11.200706 0,-9.54357 -0.0132,-9.733213 -0.75665,-10.846037 -1.42748,-2.136813 -2.22858,-2.316196 -9.910015,-2.219046 l -6.83333,0.08642 v 13.163393 13.163398 l 1,0.21383 c 0.55,0.11761 3.625,0.23135 6.83333,0.25276 4.939265,0.033 6.012145,-0.0504 6.999995,-0.5439 z m 0.65306,-44.955856 c 1.99185,-1.67603 2.01373,-1.814 2.01236,-12.693741 -0.001,-9.373081 -0.0392,-9.995403 -0.67355,-11.035934 -0.38818,-0.636678 -1.26812,-1.373183 -2.08209,-1.742683 -1.29707,-0.5888 -2.28257,-0.64055 -12.326445,-0.64728 -6.00417,-0.004 -10.91667,0.1067 -10.91667,0.24607 0,0.13937 1.9125,1.461551 4.25,2.93819 l 4.25001,2.684798 0.088,10.561809 0.088,10.561811 h 7.13641 7.136405 z m 33.93027,62.51302 c -0.55163,-0.32129 -0.58333,-3.18179 -0.58333,-52.637643 V 1.1142852 l 0.74084,-0.51890997 c 1.04691,-0.73328 15.45019,-0.77346 16.44545,-0.0459 0.62749,0.45872997 0.64977,1.13375997 0.73741,22.33333477 l 0.0904,21.860308 h 8.49297 8.49296 V 23.38787 c 0,-21.3824048 0.0466,-22.3307548 1.13323,-23.05631477 0.20173,-0.13469 3.74589,-0.24719 7.87593,-0.25 6.26272,-0.004 7.63214,0.081 8.25,0.5138 l 0.74084,0.51889997 V 53.210358 c 0,50.046542 -0.024,52.117822 -0.60958,52.647772 -0.531,0.48055 -1.62434,0.55167 -8.4811,0.55167 -7.75633,0 -7.87911,-0.0108 -8.39042,-0.74084 -0.45658,-0.65186 -0.5189,-3.3141 -0.5189,-22.166677 V 62.076448 h -8.5 -8.5 v 21.18322 c 0,18.336052 -0.0683,21.315422 -0.50856,22.166682 l -0.50856,0.98345 -7.90811,-0.0101 c -4.74866,-0.006 -8.14116,-0.14587 -8.49144,-0.34989 z m 66.66667,0 c -0.55165,-0.3213 -0.58333,-3.19006 -0.58333,-52.811483 0,-52.41701177 7e-4,-52.47208177 0.67776,-52.83443177 0.47295,-0.25311 6.39115,-0.3284 19.58334,-0.24914 17.14717,0.10303 19.07608,0.16964 20.73889,0.71613 6.05328,1.98943997 9.93549,6.06898997 11.61517,12.20560677 0.41144,1.50317 0.52383,5.19502 0.62406,20.500004 0.11354,17.337521 0.0759,18.936067 -0.52922,22.450157 -0.83929,4.874307 -2.02024,7.339435 -4.7083,9.828105 -1.09258,1.01153 -2.92742,2.296987 -4.07744,2.85657 -3.85447,1.875537 -5.08483,2.031837 -15.9943,2.031837 h -9.92996 v 17.092496 c 0,14.930569 -0.0656,17.186219 -0.5189,17.833349 -0.51176,0.73063 -0.62771,0.7407 -8.41667,0.7307 -4.74164,-0.006 -8.13088,-0.14591 -8.4811,-0.3499 z m 31.92734,-53.461947 c 2.52622,-1.48046 2.48933,-1.21915 2.48933,-17.633477 v -14.52136 l -0.984,-1.120707 c -0.54119,-0.616387 -1.5711,-1.296607 -2.28867,-1.511597 -1.46448,-0.43877 -22.39609,-0.57048 -22.39108,-0.14089 0.002,0.1375 0.9391,0.8437 2.08333,1.569342 1.14423,0.72564 3.09292,1.976696 4.33042,2.780123 l 2.25,1.460778 V 38.439933 53.40981 h 6.55404 c 6.3654,0 6.59442,-0.02367 7.95663,-0.821967 z m 19.181,53.514387 c -0.40522,-0.25921 -0.41166,-0.66284 -0.0438,-2.74812 0.4903,-2.77963 5.27477,-25.228595 6.34639,-29.777632 0.3887,-1.65 1.83362,-8.25 3.21095,-14.666668 3.89397,-18.14109 4.26749,-19.86883 7.13428,-33.000001 1.48093,-6.783333 3.12084,-14.358336 3.64423,-16.8333338 1.55521,-7.35412 1.76782,-8.14722997 2.30098,-8.58332997 0.38241,-0.31281 3.00904,-0.41667 10.53817,-0.41667 11.35642,0 11.28406,-0.0149 11.68574,2.41482997 0.12897,0.78018 0.5813,2.84351 1.00518,4.58517 0.42387,1.74167 1.14917,5.0416668 1.61177,7.3333368 1.14072,5.650964 4.42243,21.031487 7.53898,35.333331 1.53277,7.033824 5.46049,25.196909 6.1991,28.666669 0.4488,2.108333 1.40625,6.458332 2.12767,9.666666 3.19882,14.225972 3.71706,16.965902 3.34167,17.667322 -0.35174,0.65724 -0.61275,0.67476 -8.76443,0.58839 l -8.40189,-0.089 -0.57105,-1.83333 c -0.49246,-1.58102 -2.04198,-9.632174 -3.28784,-17.083352 l -0.37621,-2.25 h -11.93232 -11.93233 l -0.52682,2.416666 c -0.28975,1.329172 -1.06045,5.416672 -1.71266,9.083332 -0.65222,3.666674 -1.37507,7.341684 -1.60633,8.166684 l -0.42048,1.5 -8.31698,0.0815 c -4.59562,0.045 -8.52951,-0.0545 -8.79197,-0.22238 z m 41.64166,-36.464242 c 0,-0.05784 -0.58919,-3.32034 -1.30931,-7.25 -0.72013,-3.929665 -1.99141,-10.894845 -2.82508,-15.478178 -0.83366,-4.583334 -1.66508,-9.083334 -1.84758,-10.000001 -0.18251,-0.916666 -0.72004,-3.889913 -1.19451,-6.607215 -0.76449,-4.37826 -1.40686,-7.027025 -1.46952,-6.059452 -0.027,0.416622 -0.68248,4.066215 -2.00566,11.166667 -0.56371,3.025001 -2.15458,11.725001 -3.53528,19.333334 -1.38069,7.608335 -2.58857,14.095835 -2.68417,14.416668 -0.16236,0.544877 0.38802,0.583334 8.34864,0.583334 4.68736,0 8.52247,-0.04732 8.52247,-0.105157 z"
       id="path216" />
  </g>
</svg>